<svg id="logo_DIGI_blue2" xmlns="http://www.w3.org/2000/svg" width="89.561" height="17.107" viewBox="0 0 89.561 17.107">
  <path id="Trazado_1" data-name="Trazado 1" d="M150.387,25.3h7.38a.573.573,0,0,1,.587.587V41.82a.573.573,0,0,1-.587.587h-7.38a.573.573,0,0,1-.587-.587V25.887a.53.53,0,0,1,.587-.587" transform="translate(-68.793 -25.3)" fill="#007cbf" fill-rule="evenodd"/>
  <path id="Trazado_2" data-name="Trazado 2" d="M139.215,42.407H116.154a8.554,8.554,0,0,1,0-17.107h16.688a.566.566,0,0,1,.5.839l-.587,1.09a.461.461,0,0,1-.419.252H122.024a9.809,9.809,0,0,0-1.677.419,6.937,6.937,0,0,0-1.342.755h0a6.438,6.438,0,0,0,.084,10.4h0c.168.084.252.168.419.252h0a9.318,9.318,0,0,0,1.342.587h.084a5.344,5.344,0,0,0,.587.168h.335c.252,0,.5.084.755.084h9.811V33.267a.573.573,0,0,1,.587-.587h7.38a.573.573,0,0,1,.587.587v8.47a.573.573,0,0,1-.587.587h-1.174" transform="translate(-61.981 -25.3)" fill="#007cbf" fill-rule="evenodd"/>
  <path id="Trazado_3" data-name="Trazado 3" d="M95.387,25.3h7.38a.573.573,0,0,1,.587.587V41.82a.573.573,0,0,1-.587.587h-7.38a.573.573,0,0,1-.587-.587V25.887c.084-.419.252-.587.587-.587" transform="translate(-59.915 -25.3)" fill="#007cbf" fill-rule="evenodd"/>
  <path id="Trazado_4" data-name="Trazado 4" d="M61.167,42.407h-7.38a.573.573,0,0,1-.587-.587V25.887a.573.573,0,0,1,.587-.587h23.9a8.554,8.554,0,0,1,0,17.107H61.167m.587-2.18H71.984A6.108,6.108,0,0,0,74,39.64a4.755,4.755,0,0,0,1.09-.671h0a3.825,3.825,0,0,0,1.006-1.006h0l.252-.252v-.084a6.394,6.394,0,0,0-3.438-9.979h0c-.168,0-.252-.084-.419-.084H72.4a.5.5,0,0,1-.335-.084h-.084c-.252,0-.5-.084-.755-.084H61.754v12.83Z" transform="translate(-53.2 -25.3)" fill="#007cbf" fill-rule="evenodd"/>
</svg>
